<svg width="13" height="18" viewBox="0 0 13 18" fill="none" xmlns="http://www.w3.org/2000/svg">
    <path d="M12.9993 6.43283C12.9119 7.7039 12.3942 8.91673 11.52 9.89798C10.6459 10.8792 9.46013 11.5786 8.13228 11.8961C8.04742 11.9169 7.97241 11.9633 7.919 12.028C7.8656 12.0927 7.83683 12.172 7.83723 12.2536V13.374C7.83718 13.4224 7.84737 13.4702 7.86721 13.5149C7.88709 13.5595 7.91622 13.6001 7.95299 13.6343C7.98976 13.6685 8.0334 13.6957 8.08146 13.7142C8.12952 13.7327 8.18102 13.7423 8.23305 13.7423H9.36307C9.4681 13.7422 9.56889 13.7809 9.64321 13.8499C9.71756 13.9188 9.7594 14.0124 9.75951 14.11V15.8467C9.7594 15.9443 9.71756 16.0378 9.64321 16.1068C9.56889 16.1757 9.4681 16.2144 9.36307 16.2144H8.23321C8.1812 16.2144 8.12968 16.2239 8.08162 16.2423C8.03356 16.2608 7.98989 16.2879 7.95312 16.3221C7.91635 16.3562 7.88717 16.3968 7.86729 16.4414C7.84739 16.4861 7.83718 16.5339 7.83723 16.5822V17.6323C7.83701 17.7298 7.79523 17.8232 7.72101 17.8922C7.6468 17.9611 7.5462 17.9999 7.44125 18H5.57186C5.51985 18 5.46833 17.9906 5.42024 17.9721C5.37218 17.9536 5.32849 17.9266 5.29166 17.8924C5.25484 17.8583 5.22563 17.8178 5.20567 17.7731C5.18575 17.7285 5.17545 17.6806 5.17542 17.6323V16.5822C5.17542 16.5339 5.1652 16.4861 5.14533 16.4415C5.12545 16.3969 5.0963 16.3563 5.05953 16.3221C5.02278 16.288 4.97915 16.2609 4.93111 16.2424C4.88307 16.2239 4.83158 16.2144 4.7796 16.2144H3.6491C3.5971 16.2144 3.54557 16.205 3.49748 16.1865C3.44942 16.168 3.40573 16.141 3.3689 16.1068C3.33208 16.0727 3.30287 16.0321 3.28294 15.9875C3.26299 15.9429 3.25269 15.895 3.25266 15.8467V14.11C3.25269 14.0616 3.26299 14.0138 3.28294 13.9692C3.30287 13.9245 3.33208 13.884 3.3689 13.8499C3.40573 13.8157 3.44942 13.7886 3.49748 13.7702C3.54557 13.7517 3.5971 13.7422 3.6491 13.7423H4.7796C4.8316 13.7422 4.8831 13.7327 4.93116 13.7141C4.9792 13.6956 5.02286 13.6685 5.05961 13.6343C5.09635 13.6001 5.12551 13.5595 5.14538 13.5149C5.16526 13.4702 5.17545 13.4223 5.17542 13.374V12.2521C5.17572 12.1828 5.15482 12.1148 5.1151 12.0561C5.07541 11.9974 5.01857 11.9504 4.9512 11.9206C4.92905 11.9107 4.9059 11.9028 4.88208 11.8972C1.59615 11.1124 -0.686222 8.00344 0.187603 4.56884C0.746871 2.37124 2.62146 0.654812 4.99277 0.158283C6.27583 -0.110091 7.51492 -0.0259951 8.61975 0.32589C9.42245 0.582225 10.1634 0.982031 10.8007 1.50278C10.8412 1.53607 10.874 1.57671 10.8969 1.6222C10.9199 1.66771 10.9325 1.71707 10.9341 1.76731C10.9357 1.81752 10.9262 1.8675 10.9062 1.91419C10.8862 1.96085 10.856 2.00322 10.8177 2.03866L9.3407 3.41109C9.27212 3.47562 9.18015 3.51416 9.08268 3.51924C8.98521 3.52433 8.8892 3.49559 8.81324 3.43858C8.66076 3.32197 8.49831 3.21705 8.32751 3.12487C7.78104 2.82983 7.16062 2.67348 6.52853 2.6715C6.52143 2.6715 6.51373 2.6715 6.50665 2.6715C4.14491 2.6715 2.30953 4.76673 3.03649 7.0642C3.28112 7.83536 3.82427 8.49517 4.56136 8.9165C4.82694 9.06926 5.11352 9.18798 5.41332 9.2694C5.79791 9.37497 6.19783 9.42431 6.59875 9.41566C7.3688 9.39869 8.11284 9.15349 8.72224 8.71584C8.72492 8.71381 8.72776 8.71234 8.73044 8.71029C9.0244 8.49895 8.85827 8.0599 8.48592 8.0599H7.83629C7.73131 8.05987 7.63063 8.02111 7.55639 7.95218C7.48215 7.88325 7.44039 7.78975 7.44031 7.69223V6.41089C7.44052 6.31347 7.48231 6.22007 7.55655 6.15121C7.63079 6.08238 7.73139 6.04369 7.83629 6.04365H12.6035C12.6575 6.04357 12.7109 6.05374 12.7605 6.07356C12.8101 6.09336 12.8548 6.12237 12.8919 6.15884C12.929 6.19528 12.9576 6.23839 12.9761 6.28553C12.9946 6.33264 13.0025 6.38277 12.9993 6.43283Z" fill="#E72887"/>
</svg>
